<svg xmlns="http://www.w3.org/2000/svg" viewBox="0 0 900 560" role="img" aria-labelledby="title desc">
  <title id="title">Stylized 3D academy hero</title>
  <desc id="desc">A warm orange retro car on a floating island with a tree and small geometric learning objects.</desc>
  <defs>
    <linearGradient id="sky" x1="0" x2="1" y1="0" y2="1">
      <stop offset="0" stop-color="#d7d6ff"/>
      <stop offset="1" stop-color="#f7f8ff"/>
    </linearGradient>
    <linearGradient id="rock" x1="0" x2="1">
      <stop offset="0" stop-color="#454a54"/>
      <stop offset=".55" stop-color="#737985"/>
      <stop offset="1" stop-color="#2a2e36"/>
    </linearGradient>
    <linearGradient id="car" x1="0" x2="1">
      <stop offset="0" stop-color="#ff9b45"/>
      <stop offset=".55" stop-color="#f97316"/>
      <stop offset="1" stop-color="#b8440d"/>
    </linearGradient>
    <filter id="shadow" x="-30%" y="-30%" width="160%" height="160%">
      <feDropShadow dx="0" dy="18" stdDeviation="18" flood-color="#111827" flood-opacity=".22"/>
    </filter>
  </defs>
  <circle cx="490" cy="225" r="185" fill="url(#sky)"/>
  <g opacity=".92">
    <circle cx="145" cy="114" r="10" fill="#f97316"/>
    <circle cx="185" cy="160" r="12" fill="#2563eb"/>
    <polygon points="730,115 750,104 770,116 766,139 741,145 724,130" fill="#94a3b8"/>
    <polygon points="804,265 824,252 846,264 843,289 818,298 798,281" fill="#d1d5db"/>
    <path d="M132 316h55v55h-55z" fill="none" stroke="#8b95ff" stroke-width="3" transform="rotate(-14 160 344)"/>
    <path d="M696 346h58v58h-58z" fill="none" stroke="#8b95ff" stroke-width="3" transform="rotate(16 725 375)"/>
  </g>
  <g filter="url(#shadow)">
    <path d="M180 365c54-65 153-78 277-69 133 10 210-18 277 48-34 42-96 77-172 92-121 25-257 6-382-71z" fill="url(#rock)"/>
    <path d="M218 368c68 31 150 47 240 45 116-4 201-28 257-66-72 65-151 102-260 117-87 12-173-17-237-96z" fill="#1f242c" opacity=".52"/>
    <path d="M292 286c26-33 72-63 138-63h112c63 0 115 27 144 62l39 47H235l57-46z" fill="url(#car)"/>
    <path d="M346 237h178c42 0 78 20 102 52H304c10-26 24-42 42-52z" fill="#ffb25e"/>
    <path d="M373 244h75v45h-109c7-22 19-37 34-45z" fill="#dbeafe"/>
    <path d="M462 244h64c30 0 56 15 75 45H462z" fill="#dbeafe"/>
    <path d="M254 327h468v46H240c-14 0-22-15-14-27l28-19z" fill="#c84c12"/>
    <circle cx="328" cy="374" r="39" fill="#111827"/>
    <circle cx="328" cy="374" r="18" fill="#e5e7eb"/>
    <circle cx="635" cy="374" r="39" fill="#111827"/>
    <circle cx="635" cy="374" r="18" fill="#e5e7eb"/>
    <rect x="281" y="310" width="80" height="17" rx="8" fill="#fee2c5"/>
    <rect x="607" y="310" width="68" height="17" rx="8" fill="#fee2c5"/>
    <rect x="224" y="346" width="36" height="14" rx="7" fill="#fde68a"/>
    <rect x="688" y="346" width="36" height="14" rx="7" fill="#fde68a"/>
  </g>
  <g filter="url(#shadow)">
    <path d="M650 262c-5-70 29-135 75-177" stroke="#6b4f2a" stroke-width="14" fill="none" stroke-linecap="round"/>
    <path d="M720 90c-43-6-69 9-74 37-33-2-54 15-56 43 27 13 63 5 78-17 29 21 72 13 87-20 34 7 62-12 67-43-30-18-70-17-102 0z" fill="#263423"/>
    <path d="M685 92c-32-1-54 11-64 35" stroke="#41543a" stroke-width="10" stroke-linecap="round"/>
  </g>
  <g opacity=".85">
    <polygon points="209,92 236,76 262,92 262,124 236,140 209,124" fill="#e5e7eb"/>
    <polygon points="230,83 256,99 236,111 211,96" fill="#f9fafb"/>
    <polygon points="236,111 256,99 256,124 236,137" fill="#cbd5e1"/>
    <polygon points="211,96 236,111 236,137 211,124" fill="#94a3b8"/>
    <polygon points="774,202 800,187 826,202 826,232 800,247 774,232" fill="#f3f4f6"/>
    <polygon points="800,187 826,202 800,218 774,202" fill="#fff"/>
    <polygon points="800,218 826,202 826,232 800,247" fill="#d1d5db"/>
    <polygon points="774,202 800,218 800,247 774,232" fill="#94a3b8"/>
  </g>
</svg>
