<svg xmlns="http://www.w3.org/2000/svg" viewBox="0 0 620 360">
  <defs><linearGradient id="bg" x1="0" x2="1" y1="0" y2="1"><stop stop-color="#f8fafc"/><stop offset="1" stop-color="#e5e7eb"/></linearGradient><filter id="s"><feDropShadow dx="0" dy="16" stdDeviation="14" flood-color="#111827" flood-opacity=".16"/></filter></defs>
  <rect width="620" height="360" fill="url(#bg)"/>
  <g filter="url(#s)" transform="translate(213 28)">
    <path d="M96 18c66 0 108 52 100 120-8 76-55 128-104 128S5 206 0 136C-4 72 33 18 96 18z" fill="#d1d5db"/>
    <path d="M52 131c16 16 79 20 101-3 1 41-23 76-54 76-29 0-49-30-47-73z" fill="#f8fafc"/>
    <circle cx="59" cy="116" r="10" fill="#111827"/>
    <circle cx="136" cy="116" r="10" fill="#111827"/>
    <path d="M82 148c16 8 31 8 48 0" stroke="#111827" stroke-width="8" stroke-linecap="round" fill="none"/>
    <path d="M23 91c13-54 56-86 107-73 38 10 68 43 70 90-40-44-119-52-177-17z" fill="#9ca3af"/>
    <path d="M14 76c39-42 94-58 146-24" stroke="#6b7280" stroke-width="10" stroke-linecap="round"/>
  </g>
  <path d="M126 286c88 20 271 18 370 0" stroke="#cbd5e1" stroke-width="3" stroke-dasharray="9 12"/>
</svg>
