<svg xmlns="http://www.w3.org/2000/svg" viewBox="0 0 620 360">
  <defs><linearGradient id="g" x1="0" x2="1" y1="0" y2="1"><stop stop-color="#ede9fe"/><stop offset="1" stop-color="#fff"/></linearGradient><filter id="s"><feDropShadow dx="0" dy="18" stdDeviation="16" flood-color="#4f46e5" flood-opacity=".2"/></filter></defs>
  <rect width="620" height="360" fill="url(#g)"/>
  <g filter="url(#s)" transform="translate(190 54)">
    <path d="M0 55 80 10l80 45-80 45z" fill="#8b5cf6"/>
    <path d="M80 100 160 55v92l-80 47z" fill="#6d28d9"/>
    <path d="M0 55 80 100v94L0 147z" fill="#a78bfa"/>
    <path d="M100 0 180 45l-80 45-80-45z" fill="#c4b5fd"/>
    <path d="M100 90 180 45v92l-80 47z" fill="#7c3aed"/>
    <path d="M20 45 100 90v94l-80-47z" fill="#ddd6fe"/>
  </g>
  <circle cx="164" cy="92" r="8" fill="#7c3aed"/>
  <circle cx="468" cy="256" r="10" fill="#8b5cf6"/>
  <path d="M106 260h82M432 92h72" stroke="#a78bfa" stroke-width="3" stroke-linecap="round"/>
</svg>
