<svg width="1024" height="1024" viewBox="0 0 1024 1024" fill="none" xmlns="http://www.w3.org/2000/svg">
<path fill-rule="evenodd" clip-rule="evenodd" d="M825.95 220.156V668.156L795.04 676.438V708.438L269.577 849.235L199 795.08V347.08L229.909 338.798V306.798L755.373 166L825.95 220.156ZM269.577 337.235V369.235L238.668 377.518V793.518L260.819 810.515L755.373 678V646L786.282 637.718V221.717L764.13 204.72L269.577 337.235Z" fill="black"/>
<path d="M825.951 220.156V668.156L795.041 676.438V708.438L269.578 849.236V817.236L238.668 825.518V377.518L269.578 369.236V337.236L795.041 196.438V228.438L825.951 220.156Z" fill="white"/>
<path d="M300.486 840.953L269.577 849.235V817.235L300.486 808.953V840.953Z" fill="black"/>
<path d="M362.306 824.389L300.486 840.953V808.953L362.306 792.389V824.389Z" fill="black"/>
<path d="M269.577 465.235L300.486 456.953V488.953L269.577 497.235V817.235L238.668 825.518V377.518L269.577 369.235V465.235Z" fill="black"/>
<path d="M455.034 799.543L362.306 824.389V792.389L455.034 767.543V799.543Z" fill="black"/>
<path d="M516.854 782.979L455.034 799.543V767.543L516.854 750.979V782.979Z" fill="black"/>
<path d="M578.673 766.414L516.854 782.979V750.979L578.673 734.414V766.414Z" fill="black"/>
<path d="M640.492 749.85L578.673 766.414V734.414L640.492 717.85V749.85Z" fill="black"/>
<path d="M702.312 733.285L640.492 749.85V717.85L702.312 701.285V733.285Z" fill="black"/>
<path d="M795.04 708.438L702.312 733.285V701.285L795.04 676.438V708.438Z" fill="black"/>
<path d="M825.95 668.156L795.04 676.438L795.041 228.438L825.95 220.156V668.156Z" fill="black"/>
<path d="M362.306 472.389L300.486 488.953V456.953L362.306 440.389V472.389Z" fill="black"/>
<path d="M455.034 447.542L362.306 472.389V440.389L455.034 415.542V447.542Z" fill="black"/>
<path d="M516.854 430.979L455.035 447.543V415.543L516.854 398.979V430.979Z" fill="black"/>
<path d="M578.673 414.413L516.854 430.979V398.979L578.673 382.413V414.413Z" fill="black"/>
<path d="M640.492 397.85L578.674 414.414V382.414L640.492 365.85V397.85Z" fill="black"/>
<path d="M702.312 381.285L640.492 397.85V365.85L702.312 349.285V381.285Z" fill="black"/>
<path d="M795.04 356.438L702.312 381.285V349.285L795.04 324.438V356.438Z" fill="black"/>
<path d="M300.486 360.953L269.577 369.235V337.235L300.486 328.953V360.953Z" fill="black"/>
<path d="M362.306 344.389L300.486 360.953V328.953L362.306 312.389V344.389Z" fill="black"/>
<path d="M455.034 319.542L362.306 344.389V312.389L455.034 287.542V319.542Z" fill="black"/>
<path d="M640.492 333.85L609.583 342.132V310.132L640.492 301.85V333.85Z" fill="black"/>
<path d="M702.312 317.285L671.402 325.567V293.567L702.312 285.285V317.285Z" fill="black"/>
<path d="M516.854 302.978L455.034 319.542V287.542L516.854 270.978V302.978Z" fill="black"/>
<path d="M764.131 300.721L733.222 309.003V277.003L764.131 268.721V300.721Z" fill="black"/>
<path d="M578.673 286.413L516.854 302.978V270.978L578.673 254.413V286.413Z" fill="black"/>
<path d="M640.492 269.85L578.674 286.414V254.414L640.492 237.85V269.85Z" fill="black"/>
<path d="M702.312 253.285L640.492 269.85V237.85L702.312 221.285V253.285Z" fill="black"/>
<path d="M795.041 228.438L702.312 253.285V221.285L795.04 196.438L795.041 228.438Z" fill="black"/>
</svg>
