<svg width="1024" height="1024" viewBox="0 0 1024 1024" fill="none" xmlns="http://www.w3.org/2000/svg">
<path fill-rule="evenodd" clip-rule="evenodd" d="M585.006 88.9727L615.915 112.69L646.825 104.408L748.312 182.282V214.282L779.223 238V430L748.312 438.282V502.282L717.403 510.564V830.564L655.584 847.129L585.006 792.974V792.972L531.943 752.257L501.035 760.54V792.54L470.126 800.822V832.822L439.216 841.104V873.104L408.307 881.387V913.387L346.487 929.951L306.819 899.513V611.512L275.91 587.795V555.795L245 532.077V340.077L275.909 331.795V267.795L306.819 259.513V227.513L337.729 219.23V187.23L399.548 170.666V138.666L585.006 88.9727ZM439.216 169.104V201.104L377.396 217.669V249.669L346.487 257.951V289.951L315.577 298.233V362.233L284.668 370.516V530.515L315.578 554.233V586.233L346.487 609.951V888.883L368.639 882.948V850.948L399.548 842.666V810.666L430.458 802.384V770.384L461.367 762.102V730.102L523.187 713.537L646.825 808.408L677.735 800.126V480.126L708.645 471.844V407.844L739.555 399.562V239.562L708.645 215.844V183.844L655.583 143.128L624.674 151.411L593.764 127.692L439.216 169.104Z" fill="black"/>
<path d="M748.312 246.282V182.282L717.403 190.564V158.564L686.493 166.847V134.847L624.674 151.411V119.411L439.216 169.104V201.104L377.397 217.669V249.669L346.487 257.951V289.951L315.578 298.233V362.233L284.668 370.515V562.515L315.578 554.233V618.233L346.487 609.951V929.951L408.306 913.387V881.387L439.216 873.104V841.104L470.126 832.822V800.822L501.035 792.54V760.54L562.855 743.975V775.975L593.764 767.693V799.693L624.674 791.411V823.411L655.584 815.129V847.129L717.403 830.564V510.564L748.312 502.282V438.282L779.222 430V238L748.312 246.282Z" fill="white"/>
<path d="M377.396 921.669L346.487 929.951V609.951L377.396 601.669V921.669Z" fill="black"/>
<path d="M408.307 913.387L377.396 921.669L377.397 889.669L408.307 881.387V913.387Z" fill="black"/>
<path d="M439.216 873.104L408.307 881.387V849.387L439.216 841.104V873.104Z" fill="black"/>
<path d="M686.492 838.847L655.583 847.129V815.129L686.492 806.847V838.847Z" fill="black"/>
<path d="M470.125 832.822L439.216 841.104V809.104L470.125 800.822V832.822Z" fill="black"/>
<path d="M717.402 830.564L686.492 838.847L686.493 518.847L717.402 510.564V830.564Z" fill="black"/>
<path d="M655.583 815.129L624.674 823.411V791.411L655.583 783.129V815.129Z" fill="black"/>
<path d="M501.035 792.54L470.125 800.822L470.126 768.822L501.035 760.54V792.54Z" fill="black"/>
<path d="M624.674 791.411L593.764 799.693V767.693L624.673 759.411L624.674 791.411Z" fill="black"/>
<path d="M593.764 767.693L562.854 775.976V743.976L593.764 735.693V767.693Z" fill="black"/>
<path d="M562.854 743.976L501.035 760.54V728.54L562.854 711.976L562.854 743.976Z" fill="black"/>
<path d="M501.034 664.54L439.216 681.104V649.104L501.034 632.54V664.54Z" fill="black"/>
<path d="M439.216 649.104L377.397 665.669V633.669L439.216 617.104V649.104Z" fill="black"/>
<path d="M562.854 647.976L501.034 664.54V632.54L562.854 615.976V647.976Z" fill="black"/>
<path d="M624.673 631.411L562.854 647.976V615.976L624.673 599.411V631.411Z" fill="black"/>
<path d="M346.487 609.951L315.578 618.233V554.233L346.487 545.951V609.951Z" fill="black"/>
<path d="M501.034 600.54L470.125 608.822V576.822L501.034 568.54V600.54Z" fill="black"/>
<path d="M562.854 583.976L501.034 600.54V568.54L562.854 551.976V583.976Z" fill="black"/>
<path d="M686.492 582.847L624.673 599.411L624.674 567.411L686.492 550.847V582.847Z" fill="black"/>
<path d="M470.125 576.822L408.307 593.387V561.387L470.125 544.822V576.822Z" fill="black"/>
<path d="M593.764 575.693L562.854 583.976V551.976L593.764 543.693V575.693Z" fill="black"/>
<path d="M408.307 561.387L377.396 569.669V537.669L377.397 537.668V505.669L408.307 497.387V561.387Z" fill="black"/>
<path d="M315.578 554.233L284.668 562.516V370.516L315.577 362.233L315.578 554.233Z" fill="black"/>
<path d="M624.673 535.411L593.764 543.693V511.693L624.673 503.411V535.411Z" fill="black"/>
<path d="M655.583 527.129L624.673 535.411V503.411L655.583 495.129V527.129Z" fill="black"/>
<path d="M377.397 505.669L346.487 513.951V385.951L377.396 377.669L377.397 505.669Z" fill="black"/>
<path d="M748.312 502.282L717.402 510.564V446.564L748.312 438.282V502.282Z" fill="black"/>
<path d="M686.492 486.847L655.583 495.129V431.129L686.492 422.847V486.847Z" fill="black"/>
<path d="M779.222 430L748.312 438.282L748.312 246.282L779.222 238V430Z" fill="black"/>
<path d="M717.402 414.564L686.492 422.847L686.493 294.847L717.402 286.564V414.564Z" fill="black"/>
<path d="M408.307 369.387L377.396 377.669L377.397 345.669L408.307 337.387V369.387Z" fill="black"/>
<path d="M346.487 353.951L315.577 362.233L315.578 298.233L346.487 289.951V353.951Z" fill="black"/>
<path d="M408.307 337.387L377.397 345.669L377.396 313.669L408.306 305.387L408.307 337.387Z" fill="black"/>
<path d="M470.125 288.822L408.306 305.387L408.307 273.387L470.125 256.822V288.822Z" fill="black"/>
<path d="M686.493 294.847L655.583 303.129V239.129L686.492 230.847L686.493 294.847Z" fill="black"/>
<path d="M377.396 281.669L346.487 289.951V257.951L377.396 249.669V281.669Z" fill="black"/>
<path d="M501.034 248.54L470.125 256.822V224.822L501.034 216.54V248.54Z" fill="black"/>
<path d="M624.673 247.411L593.764 255.693V223.693L624.673 215.411V247.411Z" fill="black"/>
<path d="M748.312 246.282L717.402 254.564V190.564L748.312 182.282L748.312 246.282Z" fill="black"/>
<path d="M439.216 233.104L377.396 249.669L377.397 217.669L439.216 201.104V233.104Z" fill="black"/>
<path d="M562.854 231.976L501.034 248.54V216.54L562.854 199.976V231.976Z" fill="black"/>
<path d="M655.583 239.129L624.673 247.411V215.411L655.583 207.129V239.129Z" fill="black"/>
<path d="M593.764 223.693L562.854 231.976V199.976L593.764 191.693V223.693Z" fill="black"/>
<path d="M501.034 184.54L439.216 201.104V169.104L501.034 152.54V184.54Z" fill="black"/>
<path d="M717.402 190.564L686.493 198.847V166.847L717.402 158.564V190.564Z" fill="black"/>
<path d="M562.854 167.976L501.034 184.54V152.54L562.854 135.976V167.976Z" fill="black"/>
<path d="M686.493 166.847L624.674 183.411V151.411L686.492 134.847L686.493 166.847Z" fill="black"/>
<path d="M624.674 151.411L562.854 167.976V135.976L624.673 119.411L624.674 151.411Z" fill="black"/>
</svg>
