<svg width="1024" height="1024" viewBox="0 0 1024 1024" fill="none" xmlns="http://www.w3.org/2000/svg">
<path fill-rule="evenodd" clip-rule="evenodd" d="M832.012 175L871.68 205.438L871.679 621.438L624.401 687.695L717.132 758.849V790.849L346.217 890.235L306.549 859.798V827.798L337.458 819.516V787.516L368.368 779.233V756.299L191.668 803.646L152 773.209V357.209L832.012 175ZM191.668 387.646V762.579L399.277 706.951L438.945 737.389V769.389L408.036 777.671V809.671L377.126 817.953V840.886L677.464 760.411L584.734 689.258V657.258L832.012 591V216.067L191.668 387.646Z" fill="black"/>
<path d="M871.68 205.438V621.438L624.403 687.696V719.696L655.312 711.414V743.414L686.222 735.131V767.131L717.132 758.849V790.849L346.216 890.236V858.236L377.126 849.953V817.953L408.035 809.671V777.671L438.945 769.389V737.389L191.668 803.647V387.647L871.68 205.438Z" fill="white"/>
<path d="M377.124 881.953L346.215 890.235V858.235L377.124 849.953V881.953Z" fill="black"/>
<path d="M408.034 873.671L377.124 881.953L377.125 817.953L408.034 809.671V873.671Z" fill="black"/>
<path d="M438.944 865.389L408.034 873.671L408.035 841.671L438.944 833.389V865.389Z" fill="black"/>
<path d="M500.763 848.825L438.945 865.39V833.39L500.763 816.825V848.825Z" fill="black"/>
<path d="M531.673 840.543L500.763 848.825V816.825L531.673 808.543V840.543Z" fill="black"/>
<path d="M562.583 832.261L531.673 840.543V808.543L562.583 800.261V832.261Z" fill="black"/>
<path d="M624.401 815.696L562.583 832.261V800.261L624.401 783.696V815.696Z" fill="black"/>
<path d="M686.221 799.132L624.401 815.696V783.696L655.312 775.414V743.413L686.221 735.132V799.132Z" fill="black"/>
<path d="M438.944 801.39L408.035 809.672V777.672L438.944 769.39V801.39Z" fill="black"/>
<path d="M222.577 795.364L191.668 803.646V387.646L222.577 379.364V795.364Z" fill="black"/>
<path d="M500.763 720.825L469.854 729.106V761.106L500.763 752.825V784.825L438.944 801.39L438.945 705.39L500.763 688.825V720.825Z" fill="black"/>
<path d="M717.131 790.85L686.222 799.131V767.131L717.131 758.85V790.85Z" fill="black"/>
<path d="M284.396 778.8L222.577 795.364L222.578 763.364L284.396 746.8V778.8Z" fill="black"/>
<path d="M531.673 776.543L500.763 784.825V752.825L531.673 744.543V776.543Z" fill="black"/>
<path d="M315.306 770.518L284.396 778.8V746.8L315.306 738.518V770.518Z" fill="black"/>
<path d="M562.583 768.261L531.673 776.543V744.543L562.583 736.261V768.261Z" fill="black"/>
<path d="M377.124 753.953L315.306 770.518V738.518L377.124 721.953V753.953Z" fill="black"/>
<path d="M624.401 751.696L562.583 768.261V736.261L593.492 727.979V695.979L562.584 704.261V672.261L624.401 655.696V751.696Z" fill="black"/>
<path d="M408.034 745.672L377.125 753.954V721.954L408.034 713.672V745.672Z" fill="black"/>
<path d="M655.312 743.413L624.401 751.696L624.402 719.696L655.312 711.414V743.413Z" fill="black"/>
<path d="M438.944 737.39L408.034 745.672V713.672L438.945 705.39L438.944 737.39Z" fill="black"/>
<path d="M531.673 712.543L500.763 720.825V688.825L531.673 680.543V712.543Z" fill="black"/>
<path d="M562.584 704.261L531.673 712.543V680.543L562.584 672.261V704.261Z" fill="black"/>
<path d="M284.396 682.8L222.578 699.364V667.364L284.396 650.8V682.8Z" fill="black"/>
<path d="M655.312 679.414L624.402 687.696L624.401 655.696L655.312 647.414V679.414Z" fill="black"/>
<path d="M315.306 674.518L284.396 682.8V650.8L315.306 642.518V674.518Z" fill="black"/>
<path d="M717.13 662.85L655.312 679.414V647.414L717.13 630.85V662.85Z" fill="black"/>
<path d="M377.124 657.953L315.306 674.518V642.518L377.124 625.953V657.953Z" fill="black"/>
<path d="M547.128 660.401L516.219 668.684V636.684L547.128 628.401V660.401Z" fill="black"/>
<path d="M748.04 654.567L717.13 662.85V630.85L748.04 622.567V654.567Z" fill="black"/>
<path d="M408.034 649.672L377.125 657.954V625.954L408.034 617.672V649.672Z" fill="black"/>
<path d="M778.95 646.285L748.04 654.567V622.567L778.95 614.285V646.285Z" fill="black"/>
<path d="M438.944 641.39L408.034 649.672V617.672L438.944 609.39V641.39Z" fill="black"/>
<path d="M840.769 629.721L778.95 646.285V614.285L840.769 597.721V629.721Z" fill="black"/>
<path d="M500.763 624.825L438.944 641.39V609.39L500.763 592.825V624.825Z" fill="black"/>
<path d="M871.679 621.438L840.769 629.721L840.77 213.721L871.679 205.438V621.438Z" fill="black"/>
<path d="M531.673 616.543L500.763 624.825V592.825L531.673 584.543V616.543Z" fill="black"/>
<path d="M562.583 608.261L531.673 616.543V584.543L562.583 576.261V608.261Z" fill="black"/>
<path d="M624.401 591.696L562.583 608.261V576.261L624.401 559.696V591.696Z" fill="black"/>
<path d="M655.312 583.414L624.401 591.696V559.696L655.312 551.414V583.414Z" fill="black"/>
<path d="M717.13 566.85L655.312 583.414V551.414L717.13 534.85V566.85Z" fill="black"/>
<path d="M748.04 558.567L717.13 566.85V534.85L748.04 526.567V558.567Z" fill="black"/>
<path d="M778.95 550.285L748.04 558.567V526.567L778.95 518.285V550.285Z" fill="black"/>
<path d="M840.769 533.721L778.95 550.285V518.285L840.769 501.721V533.721Z" fill="black"/>
<path d="M284.396 394.8L222.578 411.364L222.577 379.364L284.396 362.8V394.8Z" fill="black"/>
<path d="M315.306 386.518L284.396 394.8V362.8L315.306 354.518V386.518Z" fill="black"/>
<path d="M377.124 369.953L315.306 386.518V354.518L377.124 337.953V369.953Z" fill="black"/>
<path d="M408.034 361.671L377.124 369.953V337.953L408.034 329.671V361.671Z" fill="black"/>
<path d="M438.944 353.389L408.034 361.671V329.671L438.944 321.389V353.389Z" fill="black"/>
<path d="M500.763 336.824L438.944 353.389V321.389L500.763 304.824V336.824Z" fill="black"/>
<path d="M531.673 328.542L500.763 336.824V304.824L531.673 296.542V328.542Z" fill="black"/>
<path d="M562.583 320.261L531.674 328.543V296.543L562.583 288.261V320.261Z" fill="black"/>
<path d="M624.401 303.696L562.583 320.261V288.261L624.401 271.696V303.696Z" fill="black"/>
<path d="M655.312 295.414L624.401 303.696V271.696L655.312 263.414V295.414Z" fill="black"/>
<path d="M717.13 278.85L655.312 295.414V263.414L717.13 246.85V278.85Z" fill="black"/>
<path d="M748.04 270.567L717.13 278.85V246.85L748.04 238.567V270.567Z" fill="black"/>
<path d="M778.95 262.285L748.04 270.567V238.567L778.95 230.285V262.285Z" fill="black"/>
<path d="M840.769 245.721L778.95 262.285V230.285L840.77 213.721L840.769 245.721Z" fill="black"/>
</svg>
