<svg width="1024" height="1024" viewBox="0 0 1024 1024" fill="none" xmlns="http://www.w3.org/2000/svg">
<path fill-rule="evenodd" clip-rule="evenodd" d="M763.312 306V754L299.668 878.233L260 847.795V239.795L569.097 156.973L763.312 306ZM299.668 270.233V837.165L723.645 723.562V307.562L577.854 195.692L299.668 270.233Z" fill="black"/>
<path d="M763.312 306V754L299.668 878.233V270.233L608.764 187.411V219.411L639.674 211.129V243.129L670.584 234.847V266.847L701.493 258.564V290.564L732.403 282.282V314.282L763.312 306Z" fill="white"/>
<path d="M361.486 285.669L330.577 293.951V837.951L361.486 829.669V861.669L299.668 878.233V270.233L361.486 253.669V285.669Z" fill="black"/>
<path d="M423.306 845.104L361.486 861.669V829.669L423.306 813.104V845.104Z" fill="black"/>
<path d="M516.034 820.258L423.306 845.104V813.104L516.034 788.258V820.258Z" fill="black"/>
<path d="M577.854 803.693L516.034 820.258V788.258L577.854 771.693V803.693Z" fill="black"/>
<path d="M639.673 787.129L577.854 803.693V771.693L639.673 755.129V787.129Z" fill="black"/>
<path d="M701.492 770.564L639.673 787.129V755.129L701.492 738.564V770.564Z" fill="black"/>
<path d="M763.312 754L701.492 770.564V738.564L732.402 730.282V378.282L701.493 386.564V354.564L732.402 346.282V314.282L763.312 306V754Z" fill="black"/>
<path d="M423.306 749.104L392.396 757.387V725.387L423.306 717.104V749.104Z" fill="black"/>
<path d="M516.034 724.258L423.306 749.104V717.104L516.034 692.258V724.258Z" fill="black"/>
<path d="M577.854 707.693L516.034 724.258V692.258L577.854 675.693V707.693Z" fill="black"/>
<path d="M639.673 691.129L577.854 707.693V675.693L639.673 659.129V691.129Z" fill="black"/>
<path d="M670.583 682.847L639.673 691.129V659.129L670.583 650.847V682.847Z" fill="black"/>
<path d="M423.306 653.104L392.396 661.387V629.387L423.306 621.104V653.104Z" fill="black"/>
<path d="M516.034 628.258L423.306 653.104V621.104L516.034 596.258V628.258Z" fill="black"/>
<path d="M577.854 611.693L516.034 628.258V596.258L577.854 579.693V611.693Z" fill="black"/>
<path d="M639.673 595.129L577.854 611.693V579.693L639.673 563.129V595.129Z" fill="black"/>
<path d="M670.583 586.847L639.673 595.129V563.129L670.583 554.847V586.847Z" fill="black"/>
<path d="M423.306 557.104L392.396 565.387V533.387L423.306 525.104V557.104Z" fill="black"/>
<path d="M516.034 532.258L423.306 557.104V525.104L516.034 500.258V532.258Z" fill="black"/>
<path d="M577.854 515.693L516.034 532.258V500.258L577.854 483.693V515.693Z" fill="black"/>
<path d="M639.673 499.129L577.854 515.693V483.693L639.673 467.129V499.129Z" fill="black"/>
<path d="M670.583 490.847L639.673 499.129V467.129L670.583 458.847V490.847Z" fill="black"/>
<path d="M423.306 461.104L392.396 469.387V437.387L423.306 429.104V461.104Z" fill="black"/>
<path d="M516.034 436.258L423.306 461.104V429.104L516.034 404.258V436.258Z" fill="black"/>
<path d="M577.854 419.693L546.944 427.976V235.976L516.035 244.258V212.258L577.854 195.693V419.693Z" fill="black"/>
<path d="M639.673 403.129L577.854 419.693L577.854 387.693L639.673 371.129V403.129Z" fill="black"/>
<path d="M701.493 386.564L639.673 403.129V371.129L701.493 354.564V386.564Z" fill="black"/>
<path d="M423.306 365.104L392.396 373.387V341.387L423.306 333.104V365.104Z" fill="black"/>
<path d="M516.034 340.258L423.306 365.104V333.104L516.034 308.258V340.258Z" fill="black"/>
<path d="M732.402 314.282L701.493 322.564V290.564L732.402 282.282V314.282Z" fill="black"/>
<path d="M701.493 290.564L670.583 298.847V266.847L701.492 258.564L701.493 290.564Z" fill="black"/>
<path d="M423.306 269.104L361.486 285.669V253.669L423.306 237.104V269.104Z" fill="black"/>
<path d="M670.583 266.847L639.674 275.129V243.129L670.583 234.847V266.847Z" fill="black"/>
<path d="M516.035 244.258L423.306 269.104V237.104L516.035 212.258V244.258Z" fill="black"/>
<path d="M639.674 243.129L608.764 251.411V219.411L639.673 211.129L639.674 243.129Z" fill="black"/>
<path d="M608.764 219.411L577.854 227.693L577.854 195.693L608.764 187.411V219.411Z" fill="black"/>
</svg>
