<svg width="1024" height="1024" viewBox="0 0 1024 1024" fill="none" xmlns="http://www.w3.org/2000/svg">
<path fill-rule="evenodd" clip-rule="evenodd" d="M810.041 224.156V672.156L779.132 680.438V712.438L284.578 844.953L214 790.798V342.798L244.909 334.516V302.516L739.463 170L810.041 224.156ZM284.577 332.953V364.953L253.668 373.235V789.234L275.82 806.232L739.464 682V650L770.374 641.718V225.719L748.22 208.72L284.577 332.953Z" fill="black"/>
<path d="M810.041 224.156V672.156L779.132 680.438V712.438L284.578 844.953V812.953L253.668 821.236V373.236L284.578 364.953V332.953L779.132 200.438V232.438L810.041 224.156Z" fill="white"/>
<path d="M346.396 828.389L284.578 844.953V812.953L346.396 796.389V828.389Z" fill="black"/>
<path d="M377.306 820.106L346.396 828.389V796.389L377.306 788.106V820.106Z" fill="black"/>
<path d="M284.578 812.953L253.668 821.235V373.235L284.577 364.953L284.578 812.953Z" fill="black"/>
<path d="M408.216 811.824L377.306 820.106V788.106L408.216 779.824V811.824Z" fill="black"/>
<path d="M470.034 795.26L408.216 811.824V779.824L470.034 763.26V795.26Z" fill="black"/>
<path d="M500.944 786.978L470.034 795.26V763.26L500.944 754.978V786.978Z" fill="black"/>
<path d="M562.763 770.413L500.944 786.978V754.978L562.763 738.413V770.413Z" fill="black"/>
<path d="M593.673 762.132L562.764 770.414V738.414L593.673 730.132V762.132Z" fill="black"/>
<path d="M624.583 753.85L593.673 762.132V730.132L624.583 721.85V753.85Z" fill="black"/>
<path d="M655.493 681.566L686.401 673.285V737.285L624.583 753.85V721.85L655.492 713.567V681.567L624.584 689.85V657.85L655.493 649.567V681.566Z" fill="black"/>
<path d="M717.312 729.003L686.401 737.285L686.402 705.285L717.312 697.003V729.003Z" fill="black"/>
<path d="M748.222 720.721L717.312 729.003V697.003L748.222 688.721V720.721Z" fill="black"/>
<path d="M779.132 712.438L748.222 720.721V688.721L779.132 680.438V712.438Z" fill="black"/>
<path d="M315.487 676.671L284.578 684.953V652.953L315.487 644.671V676.671Z" fill="black"/>
<path d="M779.132 232.438L810.04 224.156V672.156L779.132 680.438L779.131 584.438L748.223 592.721V560.721L779.131 552.438V232.438L748.223 240.721V208.721L779.132 200.438V232.438Z" fill="black"/>
<path d="M624.584 657.85L593.674 666.132V634.132L624.583 625.85L624.584 657.85Z" fill="black"/>
<path d="M346.396 636.389L315.487 644.671L315.486 612.671L346.396 604.389V636.389Z" fill="black"/>
<path d="M593.674 634.132L562.764 642.414V610.414L593.673 602.132L593.674 634.132Z" fill="black"/>
<path d="M531.854 586.694L562.763 578.413V610.413L531.854 618.695V586.695L500.945 594.978V562.978L531.854 554.695V586.694Z" fill="black"/>
<path d="M377.306 596.106L346.396 604.389L346.396 572.389L377.306 564.106V596.106Z" fill="black"/>
<path d="M624.583 593.85L593.673 602.132L593.674 570.132L624.583 561.85V593.85Z" fill="black"/>
<path d="M500.945 562.978L470.035 571.26V539.26L500.944 530.978L500.945 562.978Z" fill="black"/>
<path d="M748.223 560.721L717.312 569.003V537.003L748.222 528.721L748.223 560.721Z" fill="black"/>
<path d="M408.216 555.824L377.306 564.106L377.307 532.106L408.216 523.824V555.824Z" fill="black"/>
<path d="M655.493 553.567L624.583 561.85L624.584 529.85L655.493 521.567V553.567Z" fill="black"/>
<path d="M439.126 515.541L470.034 507.26L470.035 539.26L439.125 547.542V515.542L408.216 523.824L408.217 491.824L439.126 483.542V515.541Z" fill="black"/>
<path d="M717.312 537.003L686.402 545.285V513.285L717.312 505.003L717.312 537.003Z" fill="black"/>
<path d="M686.402 513.285L655.493 521.567L655.492 489.567L686.401 481.285L686.402 513.285Z" fill="black"/>
<path d="M624.583 385.849L640.039 381.708V413.708L624.583 417.849V433.85L593.674 442.132V426.131L578.22 430.272V398.272L593.674 394.131V378.132L624.583 369.85V385.849Z" fill="black"/>
<path d="M346.396 348.389L284.577 364.953L284.578 332.953L346.396 316.389V348.389Z" fill="black"/>
<path d="M377.306 340.106L346.396 348.389V316.389L377.306 308.106V340.106Z" fill="black"/>
<path d="M408.216 331.824L377.306 340.106V308.106L408.216 299.824V331.824Z" fill="black"/>
<path d="M470.034 315.26L408.216 331.824V299.824L470.034 283.26V315.26Z" fill="black"/>
<path d="M500.944 306.978L470.034 315.26V283.26L500.944 274.978V306.978Z" fill="black"/>
<path d="M562.763 290.413L500.944 306.978V274.978L562.763 258.413V290.413Z" fill="black"/>
<path d="M593.673 282.131L562.763 290.413V258.413L593.673 250.131V282.131Z" fill="black"/>
<path d="M624.583 273.85L593.674 282.132V250.132L624.583 241.85V273.85Z" fill="black"/>
<path d="M686.401 257.285L624.583 273.85V241.85L686.401 225.285V257.285Z" fill="black"/>
<path d="M717.312 249.003L686.401 257.285V225.285L717.312 217.003V249.003Z" fill="black"/>
<path d="M748.223 240.721L717.312 249.003V217.003L748.223 208.721V240.721Z" fill="black"/>
</svg>
