<svg width="1024" height="1024" viewBox="0 0 1024 1024" fill="none" xmlns="http://www.w3.org/2000/svg">
<path fill-rule="evenodd" clip-rule="evenodd" d="M825.951 240.438V464.438L795.041 472.721V504.721L764.132 513.003L702.312 465.567V497.567L671.403 505.85V537.85L640.493 546.132V578.132L609.584 586.414V618.414L578.674 626.696V658.696L547.765 666.978L455.035 595.824V627.824L424.126 636.106V668.106L393.216 676.389V708.389L362.307 716.671V748.671L331.396 756.953V788.953L300.487 797.235L199 719.362V687.362L229.909 679.08V647.08L260.819 638.798V606.798L291.729 598.516V566.516L322.639 558.233V526.233L353.548 517.951V485.951L384.458 477.669V445.669L415.367 437.387V405.387L446.277 397.104L539.006 468.257V436.258L569.916 427.976V395.976L600.825 387.693L539.006 340.258V308.258L569.915 299.976V267.976L786.283 210L825.951 240.438ZM609.583 298.413V330.413L578.673 338.695L640.493 386.131V418.131L609.584 426.413V458.413L578.674 466.695V498.695L547.765 506.978L477.187 452.822V452.82L455.035 435.824V467.824L424.125 476.106V508.106L393.216 516.389V548.389L362.307 556.671V588.671L331.396 596.953V628.953L300.487 637.235V669.235L269.577 677.518V709.518L238.668 717.8L291.729 758.515V726.516L322.639 718.233V686.233L353.548 677.951V645.951L384.458 637.669V605.669L415.367 597.387V565.387L446.277 557.104L539.006 628.257V596.258L569.916 587.976V555.976L600.825 547.693V515.693L631.735 507.411V475.411L662.645 467.129V435.129L693.554 426.847L755.373 474.281V442.282L786.283 434V251.066L609.583 298.413Z" fill="black"/>
<path d="M609.584 330.414V298.414L825.951 240.438V464.438L795.041 472.72V504.72L764.132 513.002V481.002L733.222 489.285V457.285L702.312 465.567V497.567L671.403 505.849V537.849L640.493 546.131V578.131L609.584 586.414V618.414L578.674 626.696V658.696L547.764 666.978V634.978L516.855 643.26V611.26L485.945 619.542V587.542L455.035 595.825V627.825L424.126 636.107V668.107L393.216 676.389V708.389L362.306 716.671V748.671L331.397 756.953V788.953L300.487 797.236V765.236L269.578 773.518V741.518L238.668 749.8V717.8L269.578 709.518V677.518L300.487 669.236V637.236L331.397 628.953V596.953L362.306 588.671V556.671L393.216 548.389V516.389L424.126 508.107V476.107L455.035 467.825V435.825L485.945 427.542V459.542L516.855 451.26V483.26L547.764 474.978V506.978L578.674 498.696V466.696L609.584 458.414V426.414L640.493 418.131V386.131L609.584 394.414V362.414L578.674 370.696V338.696L609.584 330.414Z" fill="white"/>
<path d="M331.396 788.953L300.487 797.235V765.235L331.396 756.953V788.953Z" fill="black"/>
<path d="M300.487 765.235L269.577 773.518V741.518L300.486 733.235L300.487 765.235Z" fill="black"/>
<path d="M362.306 748.671L331.396 756.953V724.953L362.306 716.671V748.671Z" fill="black"/>
<path d="M269.577 741.518L238.668 749.8V717.8L269.577 709.518V741.518Z" fill="black"/>
<path d="M393.216 708.389L362.306 716.671L362.307 684.671L393.216 676.389V708.389Z" fill="black"/>
<path d="M300.486 701.235L269.577 709.518V677.518L300.486 669.235V701.235Z" fill="black"/>
<path d="M424.125 668.106L393.216 676.389V644.389L424.125 636.106V668.106Z" fill="black"/>
<path d="M331.396 660.953L300.486 669.235L300.487 637.235L331.396 628.953V660.953Z" fill="black"/>
<path d="M578.674 658.696L547.765 666.979V634.979L578.674 626.696V658.696Z" fill="black"/>
<path d="M547.764 634.978L516.854 643.26V611.26L547.764 602.978V634.978Z" fill="black"/>
<path d="M455.035 627.824L424.125 636.106L424.126 604.106L455.035 595.824V627.824Z" fill="black"/>
<path d="M362.306 620.671L331.396 628.953V596.953L362.306 588.671V620.671Z" fill="black"/>
<path d="M609.583 618.414L578.674 626.696V594.696L609.583 586.414V618.414Z" fill="black"/>
<path d="M516.854 611.26L485.945 619.542V587.542L516.854 579.26V611.26Z" fill="black"/>
<path d="M485.945 587.542L455.035 595.824V563.824L485.944 555.542L485.945 587.542Z" fill="black"/>
<path d="M393.216 580.389L362.306 588.671L362.307 556.671L393.216 548.389V580.389Z" fill="black"/>
<path d="M640.493 578.132L609.583 586.414L609.584 554.414L640.493 546.132V578.132Z" fill="black"/>
<path d="M424.125 540.106L393.216 548.389V516.389L424.125 508.106V540.106Z" fill="black"/>
<path d="M671.402 537.85L640.493 546.132V514.132L671.402 505.85V537.85Z" fill="black"/>
<path d="M578.674 530.695L547.765 538.978V506.978L578.674 498.695V530.695Z" fill="black"/>
<path d="M547.765 506.978L516.854 515.26V483.26L547.764 474.978L547.765 506.978Z" fill="black"/>
<path d="M795.041 504.721L764.132 513.003V481.003L795.041 472.721V504.721Z" fill="black"/>
<path d="M455.035 499.824L424.125 508.106L424.126 476.106L455.035 467.824V499.824Z" fill="black"/>
<path d="M702.312 497.567L671.402 505.85V473.85L702.312 465.567V497.567Z" fill="black"/>
<path d="M609.583 490.414L578.674 498.695V466.696L609.583 458.414V490.414Z" fill="black"/>
<path d="M516.854 483.26L485.945 491.542V459.542L516.854 451.26V483.26Z" fill="black"/>
<path d="M764.132 481.003L733.222 489.285V457.285L764.131 449.003L764.132 481.003Z" fill="black"/>
<path d="M825.95 464.438L795.041 472.721V280.721L764.132 289.003V257.003L825.95 240.438V464.438Z" fill="black"/>
<path d="M485.945 459.542L455.035 467.824V435.824L485.944 427.542L485.945 459.542Z" fill="black"/>
<path d="M733.222 457.285L702.312 465.567L702.312 433.567L733.222 425.285V457.285Z" fill="black"/>
<path d="M640.493 450.132L609.583 458.414L609.584 426.414L640.493 418.132V450.132Z" fill="black"/>
<path d="M671.402 409.85L640.493 418.132V386.132L671.402 377.85V409.85Z" fill="black"/>
<path d="M640.493 386.132L609.584 394.414V362.414L640.493 354.132V386.132Z" fill="black"/>
<path d="M609.584 362.414L578.674 370.696V338.696L609.583 330.414L609.584 362.414Z" fill="black"/>
<path d="M702.312 305.567L609.583 330.414L609.584 298.414L702.312 273.567V305.567Z" fill="black"/>
<path d="M764.132 289.003L702.312 305.567V273.567L764.132 257.003V289.003Z" fill="black"/>
</svg>
