<svg width="1024" height="1024" viewBox="0 0 1024 1024" fill="none" xmlns="http://www.w3.org/2000/svg">
<path fill-rule="evenodd" clip-rule="evenodd" d="M779.554 288.484V608.484L748.644 616.767V648.767L717.734 657.049V689.049L686.824 697.331V729.331L377.729 812.153L276.241 734.28V734.278L245.332 710.562V390.562L276.241 382.279V350.279L307.151 341.997V309.997L338.061 301.715V269.715L647.157 186.894L779.554 288.484ZM377.729 300.153V332.153L346.819 340.436V372.436L315.909 380.718V412.718L285 421V709L368.971 773.433L647.157 698.894V666.894L678.066 658.611V626.611L708.977 618.329V586.329L739.886 578.047V290.046L655.914 225.613L377.729 300.153Z" fill="black"/>
<path d="M748.644 296.767V264.767L717.735 273.049V241.049L686.825 249.331V217.331L377.729 300.153V332.153L346.819 340.436V372.436L315.91 380.718V412.718L285 421L285 741L315.91 732.718V764.718L346.819 756.436V788.436L377.729 780.153V812.153L686.825 729.331V697.331L717.735 689.049V657.049L748.644 648.767V616.767L779.554 608.485V288.485L748.644 296.767Z" fill="white"/>
<path d="M439.548 795.589L377.729 812.153V780.153L439.548 763.589V795.589Z" fill="#101010"/>
<path d="M501.367 779.024L439.548 795.589V763.589L501.367 747.024V779.024Z" fill="#101010"/>
<path d="M377.729 780.153L346.82 788.436V724.436L377.729 716.153V780.153Z" fill="#101010"/>
<path d="M563.187 762.46L501.367 779.024V747.024L563.187 730.46V762.46Z" fill="#101010"/>
<path d="M346.819 756.436L315.91 764.718V732.718L346.82 724.436L346.819 756.436Z" fill="#101010"/>
<path d="M655.915 737.613L563.187 762.46V730.46L655.915 705.613V737.613Z" fill="#101010"/>
<path d="M315.91 732.718L285.001 741V421L315.91 412.718V732.718Z" fill="#101010"/>
<path d="M686.825 729.331L655.915 737.613V705.613L686.825 697.331V729.331Z" fill="#101010"/>
<path d="M717.734 689.049L686.825 697.331V633.331L717.734 625.049V689.049Z" fill="#101010"/>
<path d="M439.548 667.589L408.639 675.871V643.871L439.548 635.589V667.589Z" fill="#101010"/>
<path d="M501.367 651.024L439.548 667.589V635.589L501.367 619.024V651.024Z" fill="#101010"/>
<path d="M748.645 648.768L717.735 657.05V625.05L748.645 616.768V648.768Z" fill="#101010"/>
<path d="M408.639 643.871L377.729 652.153V460.153L408.639 451.871V643.871Z" fill="#101010"/>
<path d="M563.187 634.46L501.367 651.024V619.024L563.187 602.46V634.46Z" fill="#101010"/>
<path d="M594.097 626.178L563.187 634.46V602.46L594.097 594.178V626.178Z" fill="#101010"/>
<path d="M655.916 577.613L717.734 561.049V593.049L625.007 617.896V361.896L655.916 353.613V577.613Z" fill="#101010"/>
<path d="M779.554 608.485L748.645 616.768V584.768L717.735 593.05V561.05L748.645 552.768V488.768L779.554 480.485V608.485Z" fill="#101010"/>
<path d="M625.006 585.896L594.097 594.178V562.178L625.006 553.896V585.896Z" fill="#101010"/>
<path d="M779.554 480.485L748.645 488.768V296.767L779.554 288.484V480.485Z" fill="#101010"/>
<path d="M439.548 443.589L408.639 451.871V419.871L439.548 411.589V443.589Z" fill="#101010"/>
<path d="M501.367 427.024L439.548 443.589V411.589L501.367 395.024V427.024Z" fill="#101010"/>
<path d="M625.006 425.896L594.097 434.178V402.178L625.006 393.896V425.896Z" fill="#101010"/>
<path d="M563.187 410.46L501.367 427.024V395.024L563.187 378.46V410.46Z" fill="#101010"/>
<path d="M346.819 404.436L315.91 412.718V380.718L346.819 372.436V404.436Z" fill="#101010"/>
<path d="M594.097 402.178L563.187 410.46V378.46L594.097 370.178V402.178Z" fill="#101010"/>
<path d="M377.729 396.153L346.819 404.436L346.82 340.436L377.729 332.153V396.153Z" fill="#101010"/>
<path d="M439.548 315.589L377.729 332.153V300.153L439.548 283.589V315.589Z" fill="#101010"/>
<path d="M501.367 299.024L439.548 315.589V283.589L501.367 267.024V299.024Z" fill="#101010"/>
<path d="M717.734 305.049L686.825 313.331V249.331L717.734 241.049V305.049Z" fill="#101010"/>
<path d="M748.645 296.767L717.734 305.049L717.735 273.049L748.645 264.767V296.767Z" fill="#101010"/>
<path d="M563.187 282.46L501.367 299.024V267.024L563.187 250.46V282.46Z" fill="#101010"/>
<path d="M655.915 257.613L563.187 282.46V250.46L655.915 225.613V257.613Z" fill="#101010"/>
<path d="M686.825 249.331L655.915 257.613V225.613L686.825 217.331V249.331Z" fill="#101010"/>
</svg>
