<svg width="1024" height="1024" viewBox="0 0 1024 1024" fill="none" xmlns="http://www.w3.org/2000/svg">
<path fill-rule="evenodd" clip-rule="evenodd" d="M655.493 254.411V382.411L624.583 390.693V422.693L593.674 430.976V462.975L615.825 479.973L708.555 455.127L810.041 533V661L779.132 669.282V701.282L748.223 709.564V741.564L624.584 774.693L523.096 696.819V673.886L500.943 679.822V743.822L470.034 752.104V784.104L439.125 792.387V824.387L315.486 857.516L275.818 827.077V827.075L214 779.642V651.642L244.909 643.359V611.359L275.819 603.077V571.077L399.458 537.948V505.948L430.367 497.666V465.666L368.549 418.23V290.23L399.458 281.948V249.948L430.368 241.666V209.666L554.006 176.537L655.493 254.411ZM470.036 240.104V272.104L439.126 280.387V312.387L408.217 320.669V416.669L470.035 464.104V528.104L439.125 536.387V568.387L315.487 601.516V633.516L284.577 641.798V673.798L253.668 682.08V778.079L306.729 818.794L399.457 793.948V761.948L430.366 753.666V721.666L461.276 713.384V649.384L523.096 632.819L562.764 663.258V695.257L615.825 735.973L708.555 711.126V679.126L739.464 670.844V638.844L770.374 630.562V534.562L739.463 510.845V510.843L717.312 493.847L624.584 518.693L554.006 464.537V400.537L584.915 392.255V360.255L615.825 351.973V255.972L562.764 215.258L470.036 240.104Z" fill="black"/>
<path d="M779.132 541.282V509.282L748.222 517.564V485.564L624.584 518.693V486.693L593.674 494.976V430.976L624.584 422.693V390.693L655.493 382.411V254.411L624.584 262.693V230.693L593.674 238.976V206.976L470.035 240.104V272.104L439.126 280.387V312.387L408.216 320.669V448.669L439.126 440.387V472.387L470.035 464.104V528.104L439.126 536.387V568.387L315.487 601.515V633.515L284.578 641.798V673.798L253.668 682.08V810.08L284.578 801.798V833.798L315.487 825.515V857.515L439.126 824.387V792.387L470.035 784.104V752.104L500.945 743.822V679.822L562.764 663.258V727.258L593.674 718.976V750.976L624.584 742.693V774.693L748.222 741.564V709.564L779.132 701.282V669.282L810.041 661V533L779.132 541.282Z" fill="white"/>
<path d="M346.396 849.233L315.487 857.516V825.516L346.396 817.233V849.233Z" fill="black"/>
<path d="M377.307 840.951L346.396 849.233V817.233L377.307 808.951V840.951Z" fill="black"/>
<path d="M439.125 824.387L377.307 840.951V808.951L439.125 792.387V824.387Z" fill="black"/>
<path d="M315.487 825.516L284.577 833.798V801.798L315.486 793.516L315.487 825.516Z" fill="black"/>
<path d="M284.577 801.798L253.668 810.08V682.08L284.577 673.798V801.798Z" fill="black"/>
<path d="M470.034 784.104L439.125 792.387V760.387L470.034 752.104V784.104Z" fill="black"/>
<path d="M686.401 758.129L624.584 774.693V742.693L686.401 726.129V758.129Z" fill="black"/>
<path d="M717.312 749.847L686.401 758.129V726.129L717.312 717.847V749.847Z" fill="black"/>
<path d="M377.307 744.951L346.397 753.233V689.233L377.307 680.951V744.951Z" fill="black"/>
<path d="M500.945 743.822L470.036 752.104V656.104L500.945 647.822V743.822Z" fill="black"/>
<path d="M624.584 742.693L593.675 750.976V718.976L624.584 710.693V742.693Z" fill="black"/>
<path d="M748.222 741.564L717.312 749.847V717.847L748.222 709.564V741.564Z" fill="black"/>
<path d="M439.125 696.387L408.217 704.668V736.669L377.307 744.951V680.951L439.125 664.387V696.387Z" fill="black"/>
<path d="M593.673 718.976L562.764 727.258V663.258L500.946 679.822L500.945 647.822L593.673 622.976V718.976Z" fill="black"/>
<path d="M779.132 701.282L748.222 709.564L748.223 677.564L779.132 669.282V701.282Z" fill="black"/>
<path d="M470.035 688.104L439.125 696.387V664.387L470.036 656.104L470.035 688.104Z" fill="black"/>
<path d="M315.487 665.516L284.577 673.798L284.578 641.798L315.487 633.516V665.516Z" fill="black"/>
<path d="M686.401 662.129L655.492 670.411V542.411L624.584 550.693V518.693L686.401 502.129V662.129Z" fill="black"/>
<path d="M810.041 661L779.132 669.282V541.282L810.041 533V661Z" fill="black"/>
<path d="M717.312 653.847L686.401 662.129L686.402 598.129L717.312 589.847V653.847Z" fill="black"/>
<path d="M346.396 625.233L315.487 633.516V601.516L346.396 593.233V625.233Z" fill="black"/>
<path d="M377.307 616.951L346.396 625.233V593.233L377.307 584.951V616.951Z" fill="black"/>
<path d="M439.125 600.387L377.307 616.951V584.951L439.125 568.387V600.387Z" fill="black"/>
<path d="M470.035 560.104L439.125 568.387L439.126 536.387L470.035 528.104V560.104Z" fill="black"/>
<path d="M779.132 541.282L748.222 549.564V517.564L779.131 509.282L779.132 541.282Z" fill="black"/>
<path d="M717.312 525.847L686.402 534.129L686.401 502.129L717.312 493.847V525.847Z" fill="black"/>
<path d="M500.945 519.822L470.035 528.104L470.036 464.104L500.945 455.822V519.822Z" fill="black"/>
<path d="M624.584 518.693L593.674 526.976V494.976L624.583 486.693L624.584 518.693Z" fill="black"/>
<path d="M748.222 517.564L717.312 525.847V493.847L748.222 485.564V517.564Z" fill="black"/>
<path d="M593.674 494.976L562.764 503.258L562.765 439.258L593.674 430.976V494.976Z" fill="black"/>
<path d="M562.764 375.258L531.855 383.539V479.54L500.946 487.822V327.822L562.764 311.258V375.258Z" fill="black"/>
<path d="M470.036 464.104L439.126 472.387V440.387L470.035 432.104L470.036 464.104Z" fill="black"/>
<path d="M439.126 440.387L408.216 448.669V320.669L439.125 312.387L439.126 440.387Z" fill="black"/>
<path d="M624.584 422.693L593.674 430.976L593.675 398.976L624.584 390.693V422.693Z" fill="black"/>
<path d="M624.584 262.692L655.492 254.411V382.411L624.584 390.693L624.583 262.693L593.675 270.976V238.976L624.584 230.693V262.692Z" fill="black"/>
<path d="M470.035 304.104L439.125 312.387L439.126 280.387L470.035 272.104V304.104Z" fill="black"/>
<path d="M500.945 263.822L470.035 272.104L470.036 240.104L500.945 231.822V263.822Z" fill="black"/>
<path d="M562.764 247.258L500.945 263.822V231.822L562.764 215.258V247.258Z" fill="black"/>
<path d="M593.675 238.976L562.764 247.258V215.258L593.674 206.976L593.675 238.976Z" fill="black"/>
</svg>
